<?xml version="1.0" encoding="UTF-8"?>
<svg id="Layer_1" data-name="Layer 1" xmlns="http://www.w3.org/2000/svg" viewBox="0 0 815.43 815.43">
  <defs>
    <style>
      .cls-1 {
        fill: #113869;
      }

      .cls-2 {
        fill: #0f3869;
      }

      .cls-3 {
        fill: #13a66b;
      }

      .cls-4 {
        fill: #10a86b;
      }

      .cls-5 {
        fill: #1fa973;
      }

      .cls-6 {
        fill: #11386a;
      }

      .cls-7 {
        fill: #16a26a;
      }

      .cls-8 {
        fill: #fcfcfd;
      }

      .cls-9 {
        fill: #1ba36b;
      }

      .cls-10 {
        fill: #516492;
      }

      .cls-11 {
        fill: #1ca76f;
      }

      .cls-12 {
        fill: #13396a;
      }

      .cls-13 {
        fill: #16a96f;
      }

      .cls-14 {
        fill: #04a263;
      }

      .cls-15 {
        fill: #fff;
      }

      .cls-16 {
        fill: #2bb07a;
      }

      .cls-17 {
        fill: #f6fbf9;
      }

      .cls-18 {
        fill: #1ca970;
      }

      .cls-19 {
        fill: #f4f6f8;
      }

      .cls-20 {
        fill: #f8f9fa;
      }

      .cls-21 {
        fill: #103769;
      }

      .cls-22 {
        fill: #ebedf1;
      }

      .cls-23 {
        fill: #354f75;
      }

      .cls-24 {
        fill: #15a06a;
      }

      .cls-25 {
        fill: #11396a;
      }

      .cls-26 {
        fill: #18ab6f;
      }

      .cls-27 {
        fill: #103869;
      }

      .cls-28 {
        fill: #3e547b;
      }

      .cls-29 {
        fill: #133b6d;
      }
    </style>
  </defs>
  <path class="cls-15" d="M0,815.43V0h815.43v815.43H0ZM193.67,282.35l-18.53-29.29-18.46,29.29h36.99ZM169.15,320.65l-18.15-29.03-18.39,29.21,36.55-.18ZM217.82,320.68l-18.17-28.98-18.2,29.1,36.37-.13ZM608.49,368.07c0-23.1-18.71-41.83-41.79-41.83s-41.79,18.73-41.79,41.83,18.71,41.83,41.79,41.83,41.79-18.73,41.79-41.83ZM169.81,328.23v56.3s11.27,0,11.27,0v-56.3s-11.27,0-11.27,0ZM375.84,407.5l-.09-79.11-12.81-.02-.6,56.7-40.37-56.41c-4.32-.42-8.28-.43-13.24-.24v79.15s13.17.11,13.17.11l.18-57.89,41.28,57.92,12.48-.21ZM438.91,373.03c.22-4.73.26-7.86.05-11.54h-33.85s-.07-21.05-.07-21.05l38.3-.15.02-12.03-51.52.06-.02,79.31,52.28.04-.36-11.58-38.69-.07.08-22.89,33.79-.08ZM483.04,367.99c-.27.17-1.49,1.01-1.79,1.44l-26.16,37.84c5.29.5,9.68.41,14.97.22l19.08-27.75c.39-.57,1.53-1.15,1.57-.96,7.09,9.65,13.32,18.98,19.82,28.82l15.22-.2-23.63-34.55c-1.43-2.09-2.73-4.14-3.58-6.21l27.09-38.16-14.91-.31-19.39,28.12c-1.05-.93-2.15-2.02-2.85-3.05l-16.78-24.88-15.23.17,26.57,39.46ZM682.67,407.27l-21.69-31.85c10.44-2.79,17.01-10.73,17.46-21.15.28-6.53-1.44-12.18-5.58-17.4-5.03-5.3-12.08-8.37-19.78-8.4l-32.44-.14-.03,79.16,13.15.04.08-30.57,13.75.14,19.95,30.5c5.24.11,10,.17,15.12-.32ZM749.05,388.54l7.67,19.13,14.09-.32-32.99-78.95c-4.67-.16-8.79-.16-13.25.14l-32.4,78.88,14.04.21,7.47-19.06h35.37ZM93.22,460.56c.15-1.11.7-2.51,1.49-3.62,5.66-7.96,11.29-15.52,18.58-21.96,9.82-8.67,20.34-15.55,34.03-18.9l.12,33.33,10.42-.02c.6-12.02.67-23.06.32-35.52,3.58-1.08,7.34-1.47,11.6-1.13l.05,36.74,11.18-.05.15-36.36,11.45,1.92.53,2.48v27.45c.01,1.42.22,2.79.53,4.49h9.81c.84-10.07.52-19.59.19-30.72,20.64,7.34,35.29,24.1,46.83,40.68l-.16,1.15-.94.15c-.35.06-.53.91-.53,1.17-1.58.64-4.55,2.22-6.28,2.69-2.91.79-5.95,1.5-8.65,2.65h-1.1c-1.35-.18-3.22-.12-4.11.65h-1.1s-13.19-.11-13.19-.11c-1.22-.01-2.68-.28-3.66-.55l-.19-9.98.24-3.41c-1.8,1.1-2.58,1.8-3.42,2.83l-1.38.65c-.58.21-1.18.76-1.41,1.33l-5.12,3.88-.96.21c-.33.07-.39.77-.43,1.12l-1.86,1.28c-.21.04-.75.15-.97.23-.33.11-.41.73-.46,1.1l-4.46,3.24c-.2.04-.74.14-.96.22-.33.11-.4.76-.45,1.11l-1.18.63c-.57.2-1.17.79-1.41,1.33l-2.52,1.92-.99.06c-.37.02-.68,1.45-.34,1.57l1.29.45,1.91,1.84c.3.52.85,1.09,1.39,1.34l1.19.64c-.02.24-.1.77.11.84l1.31.47,2.51,1.93c.22.56.84,1.13,1.41,1.33l1.18.64c0,.25-.06.73.15.83.3.15.98.31,1.26.5l1.86,1.28c0,.15-.09.82.12.89l1.29.44,5.12,3.89c0,.15-.11.83.11.9l1.3.42,3.08,1.96.44,1.3c.11.32,1.34-.24,1.67-.32s-.46-.94-.63-1.1l.05-7,.59-5.13c3.44-.15,7.63-.06,11.12-.72h4.38c1.02.73,2.5.62,3.44-.17l3.74-.48c.19.15.43.43.59.34l.89-.51,1.72-.05c.44-.01,1.35-.44,1.53-.62l1.09-.02c.44,0,1.33-.44,1.51-.63.29,0,.83.05,1.09-.02l6.71-1.77.71-1.29c2.08-.59,4.28-1.89,6.32-2.69,1.16-.46,2.69-.62,2.78-1.91.16,0,.36,0,.49-.01.23-.03.75-.08,1-.14.35-.07.44-.83.46-1.16.14,0,.36,0,.48-.01l1.02-.13c.35-.04.43-.84.47-1.19.23-.04.49-.05.62-.16l1.76-1.66,2.71-2.06c1.55-1.01,2.58-2.35,3.87-3.83,1.82-2.1,3.84-4.26,5.3-6.56.22.03.84.13.91-.1l.42-1.36.02-.49c.2.02.86.13.92-.1l.37-1.39c.03-.12,0-.32.01-.48,1.12-.11,1.77-1.52,1.92-2.75l.7-1.79c1.83.56,4.16-7.89,4.44-9.35.08-.43.11-1.28.16-1.73.72,2.3,3.42-8.67,2-8.01,0-.31,0-.83,0-1.11l1.27-.65-.2-4.18c-.01-.27,0-.81.01-1.1,1.2-2.47,1.18-6.19,0-8.65-.02-.64-.06-1.78-.03-2.39l.2-3.58-1.26-.6c.02-.28,0-.8,0-1.1.32-.55.52-2.15.29-2.86l-3.23-10.09-1.01-.28c-.11-.42-.14-1.25-.17-1.71-.13-1.68-.96-3.7-2.5-4.22-.32-.95-1-2.19-1.45-3.14-.59-1.22-1.28-2.38-2.29-3.14l-.14-.63c-.05-.23-.13-.74-.2-.97-.11-.34-.86-.54-1.13-.54-.27-.89-1.31-2.02-2.11-2.6l-.47-1.12c-.09-.21,0-.85-.21-.93l-1.14-.47-4.48-4.52c-.39-.41-.95-.96-1.39-1.34-3.53-3.04-7.4-5.71-11.54-7.82-.66-1.73-2.51-1.98-4.19-2.52l-4.93-1.56-.31-.97c-4.01-1.19-7.91-2.61-11.72-2.64l-1.74-.02c-.79-.96-2.99-1.05-3.98-.27-2.45-.09-6.79-.11-9.05.06-1.05-.83-3.05-.75-4.06.2l-2.46.45-1.12-.66c-.4-.23-1.18,1-1.07,1.22l-1.13.06c.36-1.27-8.51,1.16-6.66,1.98l-3.66.85c-.23.05-.78.06-1.02.09-.35.05-.51.71-.52,1.04l-1.71.18c-1.29.13-2.7.55-2.82,1.82h-.48c-1.89.62-1.85,3.31-.67,4.71l.05,2.38.06.97c.02.32.6.49.94.64.91,2.06,3.13,3.55,5.28,4.4l.56,1.22c.15.33,1.45-.12,1.82-.3,4.76-2.27,9.86-3.82,15.17-4.43l.3-.95c.31,0,.82,0,1.1,0,3.23.83,9.45.54,12.59.42.27-.01.79,0,1.09.01,1.4.94,3.75,1.48,5.3.89l1.13.06c.43,1.13,2.22,1.35,3.54,1.7l3.03.8c.17,1.24,1.64,1.46,2.84,1.86,1.04.35,2.33,1.03,3.31,1.59.68.78,2.11,1.84,3.03,2.22.17.07.55.17.71.27.48.56,1.34,1.21,1.89,1.72l7.16,6.62c.25.61.59,1.45.87,2.01.9,1.77,2.14,3.56,3.47,4.97.08.18.21.54.26.72.05.22.16.76.23.99.09.33.74.55,1.03.56l.18,1.7c.18,1.71,1.07,4.15,2.45,4.8l.61,2.48c-.43,1.22.03,2.97.87,4,0,.3.03.82.02,1.09l-.21,4.19,1.27.65v7.55c-.53-.17-1.53,1.2-1.35,1.77l.74,2.36-.04,1.73c-.01-.09-1.32.2-1.16.49l.55,1.04-.02,1.1c-.26-.03-.83-.13-.85.11l-.15,1.5-.29,2.32c-1.56.67-1.95,3.11-2.42,4.81-.64,2.33-2.16,4.74-3.36,6.94-.29.01-.98.18-1.08.5-.07.23-.18.76-.22.96-.93,1.42-2.49,3.1-3.94,4-2.53-3.04-4.83-6.26-7.4-9.78-12.45-17.03-29.29-30.09-49.19-37.19-32.8-11.71-69.45-4.8-95.78,17.6-10.19,8.67-18.17,18.67-25.59,29.36-10-9.32-14.6-22.93-13.74-36.77,1.15-18.28,12.44-34.5,28.76-42.33,12.5-5.99,21.6-4.55,34.81-4.53l.24,14.77,27.72-22.55-7.21-6.07-20.52-17.3-.28,14.9-13.24-.18c-37.84-.51-69.27,32.41-66.39,71.32,2.05,27.67,21.67,51.61,48.46,58.66,17.79,4.68,36.26,2.47,51.56-7.44,1.14-1.82,1.15-5.2.44-7.03l-12.68-4.13c-16.1,7.03-32.6,6.25-47.44-2.32ZM327.27,455.19c2.12-2.03,2.6-5.52,1.77-7.91-1.69-4.85-7.61-5.01-12.67-7.01-2.03-.81-3.28-3.81-1.82-5.39,2.83-3.06,7.52-2.09,9.59,1.39l4.42-.37c-.3-2.55-1.37-4.06-3.37-5.28-3.97-2.43-9.18-2.11-12.99.58-2.63,1.86-3.49,4.73-2.82,7.91.5,2.35,2.68,4.16,5.39,5.06l7.41,2.46c1.02.34,2.35,2.2,2.36,3.2.01.86-.87,2.75-1.6,3.24-3.37,2.28-8.06,1.09-9.62-2.83l-4.41.32c.3,2.36,1.13,4.08,2.85,5.28,4.46,3.12,11.27,3.39,15.5-.65ZM375.9,443.6c0-8.14-6.59-14.74-14.73-14.74s-14.73,6.6-14.73,14.74,6.59,14.74,14.73,14.74,14.73-6.6,14.73-14.74ZM557.94,443.56c0-8.13-6.59-14.72-14.71-14.72s-14.71,6.59-14.71,14.72,6.59,14.72,14.71,14.72,14.71-6.59,14.71-14.72ZM637.18,454.22c1.51-2.26,1.99-5.29.85-7.5-.74-1.43-2.8-3.28-4.72-3.9l-8.08-2.61c-1.13-.37-2.49-3.03-2-4.06,1.04-2.19,3.31-3.25,5.29-3.03s3.38,1.52,4.85,2.91c.89.43,3.51.02,4.3-.63-1.86-6.3-8.29-7.45-13.58-5.71-3.66,1.2-5.71,3.98-5.67,7.63s2.37,5.71,5.87,6.95l7.35,2.59c1.31.46,2.61,3.11,1.92,4.29-1.35,2.32-3.64,3.18-5.99,2.95-2.14-.21-3.69-1.8-5.07-4.17l-4.17.72c.61,4.07,3.23,6.21,6.87,7.08,4.2,1,9.36.42,12-3.53ZM409.24,453.9l-10.06-.42-.13-23.78c-1.48-.19-2.82-.24-4.6-.21l.03,28.25h15.09c.86-1.07.67-3.8-.32-3.84ZM449.4,429.49l-4.44.06v17.34c-.02,4.14-2.73,7.17-6.57,7.16-4.04-.02-6.66-2.98-6.66-7.17v-17.24c-1.47-.26-3.4-.25-4.66.08v17.92c.01,2.22,1.26,5.76,2.81,7.3,4.09,4.07,10.48,4.26,15.12,1.48,2.55-1.53,4.34-4.09,4.35-7.06l.06-19.87ZM479.92,457.5l.1-23.78,7.41-.34c.81-.53.82-3.2-.02-3.97l-19.99-.05c-.21,1.29-.26,3.08-.16,4.12l7.68.3.17,23.9c1.93.03,3.45-.01,4.81-.18ZM510.22,456.96l.03-26.99c-1.4-.67-3.08-.68-4.86-.21l-.02,27.37c.95.96,4.2.98,4.86-.16ZM599.88,457.45l-.02-27.98h-4.52s-.44,19.72-.44,19.72l-13.92-19.43c-1.33-.28-2.99-.33-4.65-.26l-.02,27.77c1.23.55,3.26.53,4.54,0l.31-18.49c3.5,2.6,5.07,6.01,7.47,9.44l6.35,9.09c1.12.54,3.74.51,4.91.13ZM695.87,453.84l-10.19-.39-.04-24.04-4.7.18.02,28.1,14.95.07c.99-.61,1-3.89-.04-3.93ZM721.43,457.17l-.07-23.45,8.12-.14-.11-4.24-19.96.08c-.89.85-.91,3.43-.08,4.08l7.33.27.11,23.49c1.06.78,3.45.65,4.66-.09ZM767.88,453.26c5.19-6.17,4.9-14.72-.72-20.14-1.84-1.77-5.78-3.61-8.27-3.63l-12.3-.12-.06,28.34c6.94.08,16.48,1.34,21.35-4.45ZM470.03,476.15c-.02,1.3.91,1.42,1.88.88.6-.34.89-2.33.32-2.73-.87-.62-1.97-.39-3.21.36l1,1.49ZM576.45,490.59l-.36-15.89c-.3-.16-1.84-.38-1.88-.04l-.16,1.51-.33,14.49c-.01.53.89,1.62,1.38,1.54.4-.06,1.36-1.18,1.35-1.61ZM609.51,474.43l-2.49-.17-.57,2.09c-.14.5,1.42.99,1.82.67s.56-.89,1.24-2.58ZM435.03,483.16c-.19-1.07,1.07-3.48.96-4.48-.57-4.99-8.02-3.47-11.84-3.48v16.87s7.83-.11,7.83-.11c1.91-.03,4.04-1.75,4.34-3.27.35-1.78-.99-3.83-1.29-5.53ZM548.77,492.32c3.13-.02,4.89-1.96,5.02-4.7.31-6.22-8.8-3.73-9.2-8.09-.12-1.29,1.69-2.68,2.56-2.54,1.02.17,2.62.78,3.28,1.39l1.46,1.35c.29.27,1.37-.63,1.36-1.15-.04-1.8-2.69-3.73-5.01-3.71s-4.75.68-5.6,2.35c-.67,1.32-.92,4.39.38,5.31,4.79,3.4,8.27,2.08,8.38,5.08.03.75-1.22,2.24-2.08,2.4-4.47.85-4.8-4.23-7.36-1.6.38,3.38,4.16,3.93,6.82,3.91ZM599.96,489.18l-.36-7.93,3.1-.25c.43-.03.38-.9.43-1.54l-3.06-.57c-.55-.1-.63-1.93-.86-2.44-.16-.35-1.21-.76-1.35-.39-.11.28-.46,1.38-.62,1.63l-2.1,3.22,2.03.96c1.08.51-.72,5.85.62,8.64.94,1.98,4.23,2.39,5.88.54l-3.7-1.86ZM449.09,487.98l-.12.8c-.94.52-2.11,1.11-2.93,1.43s-3.09-1.38-3.16-2.33l-.57-7.12c-.04-.55-.25-1.88-.68-1.76l-1.81.53.13,8c.06,3.66,3.32,5.29,6.45,4.64,1.82-.38,3.31-.32,5.62-.25l.12-12.87c-.1-.12-2.1.29-2.56.57l-.49,8.36ZM464.4,491.4c.96-.67,1.72-2.56,1.55-3.65-.14-.95-1.6-2.31-2.62-2.61l-4.94-1.44c-.02-.93.69-2.82,1.33-2.76,2.88.26,5.48,3.56,5.44,1.42-.07-3.21-3.29-3.65-5.58-3.3-2.05.31-3.79,1.54-3.86,3.35-.16,4.46,4.72,3.46,7.66,5.34.05,1.14-1.96,2.97-2.81,2.6-2.74-1.17-3.93-2.72-4.61-1.66-.22.35.05,1.73.41,2.07,1.69,1.6,5.62,2.31,8.01.63ZM472.15,490.28l-.1-10.91c-.63-.09-2.13.05-2.34.38l.04,11.61c0,.41,1.21.9,1.5.64s.91-1.33.91-1.72ZM486.03,491.43c.01.39,1.31.9,1.57.62s.82-1.26.81-1.7l-.19-6.46c-.04-1.4-1.1-3.4-2.04-4.07-3.14-2.25-4.67.52-9.85-.64l-.11,12.81,2.37.06.18-8.27c.02-1.13,2.14-2.63,3.24-2.72s3.68.96,3.73,2.26l.29,8.12ZM494.74,486.07l7.86-.05,1.48-.04c.38-.01.45-1.55.39-1.99-.4-2.89-3.15-4.71-5.51-4.98-3.14-.35-5.95.93-6.83,4.07-.99,3.54.09,7.44,3.43,8.75,2.91,1.14,7.42.74,8.61-2.99-2.45-2.09-3.51,3.06-8.09.89-1-.47-1.34-2.32-1.34-3.66ZM515.94,491.78c1.55-.77,2.24-2.65,2.04-4.07-.49-3.62-6.62-2.19-7.66-4.82-.26-.67,1.79-2.38,2.4-2.01l2.62,1.6c.47.29,1.89.45,2.2,0,1.04-1.53-3.64-5.22-8.32-2.69-1.05.57-1.91,2.58-1.68,3.7.77,3.75,5.07,2.1,7.77,4.46.66.58-1.83,2.88-2.59,2.46l-2.98-1.65c-.43-.24-2.06-.53-2.13-.05-.45,3.38,5.5,4.47,8.32,3.07ZM529.68,491.51c.96-.58,1.96-2.58,1.67-3.53-1.22-4.05-6.28-2.47-7.62-5.16,0-.77,1.99-2.28,2.62-1.91l2.59,1.49c.41.24,1.81.73,1.84.26.02-.37-.17-1.59-.44-1.93-1.37-1.69-5.22-2.58-7.48-1.02-1.33.92-1.98,2.83-1.59,4.4.78,3.09,6.69,1.65,7.41,4.4.18.69-1.78,2.27-2.4,1.92l-2.64-1.5c-.52-.29-2.02-.71-2.34-.21-.27.41.17,1.81.6,2.15,1.93,1.52,5.35,2.12,7.77.65ZM570.55,485.65c0-3.78-3.06-6.84-6.83-6.84s-6.83,3.06-6.83,6.84,3.06,6.84,6.83,6.84,6.83-3.06,6.83-6.84ZM590.17,478.87l-.24,8.44c-.05,1.82-2.89,3.2-4.19,2.79-1.68-.53-2.87-2.18-2.83-3.99l.15-5.39c.02-.58-.77-1.78-1.31-1.75s-1.21,1.14-1.23,1.76l-.19,5.37c-.07,2.11.8,4.6,2.39,5.47,1.84,1.01,3.95.67,6.02.2l3.88.17-.25-10.55c-.01-.46-.15-1.47-.24-1.8s-.74-.36-1.94-.72ZM626,485.68c0-3.75-3.04-6.8-6.79-6.8s-6.79,3.04-6.79,6.8,3.04,6.8,6.79,6.8,6.79-3.04,6.79-6.8ZM638.95,490.66c.01.58.86,1.51,1.41,1.57,2.11.24.98-8.09.68-9.91-.9-5.46-8.48-2.03-11.5-3.14l-.13,11.37c0,.52.36,1.43.67,1.74s1.73-.43,1.73-.86l.04-6.75c.01-2.13,1.58-3.48,3.34-3.62,1.14-.09,3.59.96,3.62,2.28l.14,7.32ZM653.71,491.45c1.11-.82,1.88-3.1,1.48-4.04-1.53-3.63-6.43-1.83-7.34-4.47-.24-.7,1.82-2.33,2.43-1.98l2.52,1.43c.44.25,1.8.78,1.83.31.02-.38-.15-1.69-.4-2.01-1.3-1.68-5.29-2.44-7.36-.9-1.15.85-2.04,2.55-1.8,3.73.67,3.3,5.01,2.12,7.58,4.52.63.59-1.71,2.83-2.45,2.4l-2.61-1.51c-.53-.31-1.99-.64-2.41-.22-1.7,1.73,4.85,5.48,8.54,2.76ZM607.5,491.87l1.3-.23.03-11.31c0-.35-1.05-.93-1.33-.86-.55.14-1.34,1.25-1.34,1.84l.03,8.37c0,.67.7,2.14,1.31,2.18ZM414.11,481.73l-105.48.17v2.79s105.48-.17,105.48-.17v-2.79ZM771.29,481.72l-106.43.18v2.79s106.43-.18,106.43-.18v-2.79Z"/>
  <path class="cls-28" d="M210.6,496.99c.17.16.96,1.02.63,1.1s-1.56.64-1.67.32l-.44-1.3,1.48-.11Z"/>
  <g>
    <g>
      <path class="cls-28" d="M246.55,356.01l-11.27-2.55-.77-1.07c3.81.03,7.71,1.45,11.72,2.64l.31.97Z"/>
      <path class="cls-28" d="M232.77,352.38c-1.21.78-3.02.77-3.98-.27.99-.78,3.19-.7,3.98.27Z"/>
      <path class="cls-28" d="M255.68,360.09c-1.64-.24-3.71-1.02-4.19-2.52,1.68.53,3.53.79,4.19,2.52Z"/>
      <path class="cls-28" d="M219.74,352.17c-1.11.08-3.03,1.63-4.06.2,1.01-.95,3.01-1.03,4.06-.2Z"/>
      <path class="cls-28" d="M280.8,384.17l-2.29-3.14c1.02.75,1.71,1.92,2.29,3.14Z"/>
      <path class="cls-28" d="M213.23,352.82c-.63.23-1.48.45-2.19.56-.11-.22.68-1.45,1.07-1.22l1.12.66Z"/>
      <path class="cls-28" d="M274.45,375.16c-.11,0-.89.11-.96-.11l-.4-1.29,1.14.47c.21.08.13.73.21.93Z"/>
      <path class="cls-28" d="M268.61,369.24l-.99-.14c-.35-.05-.37-.86-.4-1.2.44.38,1,.93,1.39,1.34Z"/>
      <path class="cls-28" d="M278.37,380.41c-.24.03-.83.12-.9-.11l-.43-1.4c.27,0,1.02.21,1.13.54.07.24.15.74.2.97Z"/>
      <g>
        <path class="cls-28" d="M286.9,437.85c.29-2.69.94-5.59,2-8.01,1.42-.66-1.27,10.31-2,8.01Z"/>
        <path class="cls-28" d="M209.9,353.44c-1.91,1.04-4.4,1.46-6.66,1.98-1.85-.83,7.02-3.25,6.66-1.98Z"/>
        <path class="cls-28" d="M210.59,457.21c-.2-.31-.76-1.15-1.16-1.11-.51.06-1.56.32-2.02.53.84-1.03,1.62-1.74,3.42-2.83l-.24,3.41Z"/>
        <path class="cls-28" d="M183.85,474.89l-.04,2.09-1.29-.45c-.35-.12-.03-1.55.34-1.57l.99-.06Z"/>
        <path class="cls-6" d="M82.73,451.56c3.1,2.89,5.88,6.83,10.49,9,14.85,8.57,31.34,9.35,47.44,2.32l12.68,4.13c.71,1.83.7,5.2-.44,7.03-15.3,9.91-33.76,12.12-51.56,7.44-26.79-7.04-46.4-30.99-48.46-58.66-2.88-38.91,28.54-71.83,66.39-71.32l13.24.18.28-14.9,20.52,17.3,7.21,6.07-27.72,22.55-.24-14.77c-13.21-.01-22.32-1.46-34.81,4.53-16.33,7.83-27.62,24.05-28.76,42.33-.87,13.84,3.74,27.45,13.74,36.77Z"/>
        <g>
          <path class="cls-14" d="M193.13,444.93v-27.45c4.2-.4,3.21,10.48,6.37,13.17,1.91-2.74-1.3-8.48,3.12-9.17l.21,23.45.03,2.92c.02,2.63-6.83-4.31-9.73-2.92Z"/>
          <path class="cls-14" d="M148.62,445.22v-17.89s3,.66,3,.66c.41-5.16.55-9.81,5.37-13.6l.18,30.37-4.3,1.35c-.9.28-3.07-.21-4.24-.88Z"/>
          <path class="cls-3" d="M260.69,451.56c-1.33,1.93-7.65,8.62-10.19,7.82-11.54-16.58-26.19-33.33-46.83-40.68.32,11.13.65,20.65-.19,30.73h-9.81c-.31-1.7-.52-3.08-.52-4.5,2.9-1.39,9.75,5.54,9.73,2.92l-.03-2.92-.21-23.45c-4.42.69-1.21,6.43-3.12,9.17-3.15-2.69-2.17-13.56-6.38-13.17l-.53-2.48-11.45-1.92-.15,36.36-11.18.05-.05-36.74c-4.26-.34-8.02.05-11.6,1.13.35,12.46.29,23.49-.32,35.52l-10.42.02-.12-33.33c-13.68,3.36-24.2,10.23-34.03,18.9-7.29,6.43-12.92,14-18.58,21.96-.79,1.12-1.34,2.52-1.49,3.62-4.61-2.18-7.39-6.11-10.49-9,7.42-10.69,15.4-20.7,25.59-29.36,26.32-22.4,62.98-29.31,95.78-17.6,19.9,7.1,36.74,20.16,49.19,37.19,2.57,3.51,4.86,6.74,7.4,9.78ZM148.62,445.22c1.17.67,3.34,1.17,4.24.88l4.3-1.35-.18-30.37c-4.82,3.79-4.95,8.44-5.37,13.6l-3.02-.66v17.89Z"/>
        </g>
        <g>
          <path class="cls-28" d="M227.62,467.85c.04.3.13.82-.11.91-.36.12-1.59.42-2.05.4l-12.23-.58-1.77-.12c-.42-.03-.67-.86-.68-1.26.98.27,2.44.54,3.66.55l13.19.11Z"/>
          <path class="cls-28" d="M216.54,368.04l-.3.95c-5.31.62-10.41,2.16-15.17,4.43-.37.18-1.67.63-1.82.3l-.56-1.22c6.14-.86,9.55-4.38,17.85-4.46Z"/>
          <path class="cls-28" d="M230.23,368.46c-3.14.12-9.36.4-12.59-.42-.22-.02,1.15-.76,1.5-.76l10.31-.05.78,1.23Z"/>
          <path class="cls-28" d="M222.36,484.13c-3.49.67-7.68.58-11.12.72l-.59,5.13c-1.46-1.33-1.46-6,1.37-6.37.93-.12,11.3-.82,10.33.51Z"/>
          <path class="cls-28" d="M286.74,439.58c-.28,1.46-2.61,9.91-4.44,9.35l2.75-7.09c.4-1.04.97-2.17,1.69-2.26Z"/>
          <path class="cls-28" d="M242.59,464.54c2.13.81-9.37,4.13-8.65,2.65,2.7-1.16,5.75-1.86,8.65-2.65Z"/>
          <polygon class="cls-28" points="249.77 478.91 249.05 480.19 242.34 481.97 242.6 480.95 249.77 478.91"/>
          <path class="cls-28" d="M267.59,393.19c-1.32-1.42-2.57-3.2-3.47-4.97,1.18,1.1,2.81,3.59,3.47,4.97Z"/>
          <path class="cls-28" d="M271.74,463.95c-1.28,1.49-2.32,2.83-3.87,3.83.71-1.51,2.35-2.78,3.87-3.83Z"/>
          <path class="cls-28" d="M236.62,369.36c-1.55.59-3.9.05-5.3-.89,1.53-.87,3.97-.26,5.3.89Z"/>
          <path class="cls-28" d="M274.29,414.38l-1.27-.65.21-4.19,1.26.63c-.08,1.62-.2,3.15-.2,4.21Z"/>
          <path class="cls-28" d="M271.72,434.34c-.22,1.81-.72,4.31-2.42,4.81.47-1.71.86-4.14,2.42-4.81Z"/>
          <path class="cls-28" d="M192.35,364.11c-1.19-1.4-1.22-4.08.67-4.7-.04,1.59-.22,3.36-.67,4.7Z"/>
          <path class="cls-28" d="M271.73,401.96c-1.38-.65-2.26-3.09-2.45-4.8,1.86.45,2.01,3.03,2.45,4.8Z"/>
          <path class="cls-28" d="M232.84,467.2c.18.53-1.21,1.53-1.78,1.36l-2.33-.71c.9-.77,2.76-.84,4.11-.65Z"/>
          <path class="cls-28" d="M274.3,421.93c0,1.45.12,3.13-.62,4.13l-.74-2.36c-.18-.57.83-1.94,1.36-1.77Z"/>
          <path class="cls-28" d="M273.21,408.45c-.84-1.03-1.3-2.78-.87-4,1.09.92,1.67,2.83.87,4Z"/>
          <path class="cls-28" d="M253.5,377.59c-.93-.38-2.35-1.44-3.03-2.22,1.11.63,2.22,1.39,3.03,2.22Z"/>
          <path class="cls-28" d="M230.18,483.96c-.94.79-2.42.9-3.44.16.64-.86,2.7-.94,3.44-.16Z"/>
          <path class="cls-28" d="M241.28,371.12c-1.31-.35-3.11-.57-3.54-1.7,1.4.08,3.36.32,3.54,1.7Z"/>
          <path class="cls-28" d="M258.87,474.3c-.09,1.29-1.61,1.45-2.78,1.91.09-1.18,1.53-1.9,2.78-1.91Z"/>
          <path class="cls-28" d="M196.33,357.58c-.13,1.08-1.63,1.79-2.82,1.82.13-1.27,1.53-1.68,2.82-1.82Z"/>
          <path class="cls-28" d="M281.6,450.72c-.15,1.23-.8,2.64-1.92,2.75,0-1.25.74-2.69,1.92-2.75Z"/>
          <path class="cls-28" d="M247.16,373.79c-1.21-.4-2.67-.62-2.84-1.86,1.26.33,2.72.5,2.84,1.86Z"/>
          <path class="cls-28" d="M265.16,469.84l-1.76,1.66c.5-.53,1.2-1.23,1.76-1.66Z"/>
          <path class="cls-28" d="M256.1,379.59c-.56-.51-1.41-1.17-1.89-1.72.61.38,1.42,1.15,1.89,1.72Z"/>
          <path class="cls-28" d="M187.11,480.14c-.54-.25-1.09-.81-1.39-1.34.19.03.73.13.99.14.35.02.38.85.41,1.19Z"/>
          <path class="cls-28" d="M260.81,472.99c-.01.34-.11,1.09-.46,1.16-.26.05-.77.11-1,.14-.04-.2-.17-.93.07-.98l1.39-.32Z"/>
          <path class="cls-28" d="M262.79,471.66c-.03.35-.11,1.15-.47,1.19l-1.02.13c-.04-.22-.13-.86.1-.93l1.39-.39Z"/>
          <path class="cls-28" d="M187.78,471.63c0,.12.13.89-.1.96l-1.31.37c.24-.54.85-1.13,1.41-1.33Z"/>
          <path class="cls-28" d="M190.37,469.67c0,.12.11.86-.11.93l-1.3.4c.05-.35.13-1,.45-1.11.22-.08.75-.18.96-.22Z"/>
          <path class="cls-28" d="M196.25,465.11c0,.15.11.83-.11.9l-1.31.42c.05-.37.13-.99.46-1.1.22-.07.75-.18.97-.23Z"/>
          <path class="cls-28" d="M199.5,462.5c0,.19.07.77-.13.87-.31.15-.97.28-1.25.47.04-.35.1-1.05.43-1.12l.96-.21Z"/>
          <path class="cls-28" d="M250.33,460.54c-.03.23.07.84-.15.91-.33.11-.99.27-1.31.4,0-.26.18-1.11.53-1.17l.94-.15Z"/>
          <path class="cls-28" d="M189.72,482.1l-1.31-.47c-.21-.07-.12-.61-.11-.84.2.11.95-.06,1.03.16l.39,1.15Z"/>
          <path class="cls-28" d="M206.03,457.28c0,.11.13.9-.1.96l-1.31.37c.23-.57.83-1.12,1.41-1.33Z"/>
          <path class="cls-28" d="M278.37,455.93l-.42,1.36c-.07.23-.69.14-.91.1.03-.2.11-.76.17-1,.09-.34.84-.45,1.16-.46Z"/>
          <path class="cls-28" d="M279.67,453.95l-.37,1.39c-.06.23-.72.12-.92.1.02-.25.07-.76.06-1.03-.01-.37.96-.49,1.22-.46Z"/>
          <path class="cls-28" d="M241.25,481.99c-.18.19-1.07.62-1.51.63l.46-1.18c.12-.3.9.43,1.05.55Z"/>
          <path class="cls-28" d="M265.93,446.1c-.03.2-.1.78-.16,1.03-.08.35-.79.41-1.15.44.04-.2.15-.72.22-.96.1-.33.79-.49,1.08-.5Z"/>
          <path class="cls-28" d="M199.58,356.28c.03.2.11.89-.12.93-.36.06-1.08.17-1.42.2.02-.32.17-.99.52-1.04.24-.03.79-.04,1.02-.09Z"/>
          <path class="cls-28" d="M238.64,482.64c-.18.18-1.09.61-1.53.62l.48-1.17c.13-.3.88.42,1.04.55Z"/>
          <path class="cls-28" d="M235.39,483.31l-.89.51c-.16.09-.39-.19-.59-.34.1-.19.28-.58.42-.77.21-.29,1.1.51,1.05.6Z"/>
          <path class="cls-28" d="M273,430.42l-.02,1.01c0,.34-.71.57-.98.59l.15-1.5c.02-.23.59-.14.85-.11Z"/>
          <path class="cls-28" d="M193.41,368.1c-.34-.15-.92-.32-.94-.64l-.06-.97c.22-.03.91-.14.93.1l.08,1.51Z"/>
          <path class="cls-28" d="M193.64,485.36c-.57-.19-1.19-.77-1.41-1.33.2.02.74.08.99.13.35.07.39.85.42,1.19Z"/>
          <path class="cls-28" d="M273.64,427.8c-.01.44-.44,1.34-.62,1.52l-.55-1.04c-.15-.29,1.15-.57,1.16-.49Z"/>
          <path class="cls-28" d="M269.1,395.46c-.29-.01-.93-.23-1.03-.56-.07-.23-.18-.76-.23-.99.18-.03,1-.16,1.03.09l.22,1.45Z"/>
          <path class="cls-28" d="M196.23,487.32c-.28-.19-.96-.35-1.26-.5-.2-.1-.15-.58-.15-.83.2.11.95-.05,1.02.17l.39,1.16Z"/>
          <path class="cls-28" d="M199.5,489.93l-1.29-.44c-.21-.07-.13-.74-.12-.89.21.04.75.13.97.21.33.11.39.75.44,1.12Z"/>
          <path class="cls-28" d="M206.03,495.14l-1.3-.42c-.22-.07-.12-.76-.11-.9.2.04.75.13.97.21.33.11.4.77.45,1.12Z"/>
          <path class="cls-27" d="M277.03,378.89l.43,1.4c.07.23.66.15.9.11l.14.63,2.29,3.14c.46.95,1.13,2.19,1.45,3.14.54,1.59.82,3.78,2.5,4.22.04.46.07,1.29.17,1.71.86,3.34,2.65,9.82,3.95,13.23,0,.3.02.83,0,1.1l-.22,3.56,1.28.62c-.03.61.01,1.75.03,2.39-.86,2.62-.86,6.03,0,8.65,0,.29-.03.82-.01,1.1l-1.3.63.23,4.2c.01.28,0,.8,0,1.11-1.06,2.42-1.7,5.32-2,8.01-.05.45-.08,1.3-.16,1.73-.72.09-1.29,1.23-1.69,2.26l-2.75,7.09-.7,1.79c-1.19.06-1.91,1.5-1.92,2.75,0,.16.02.36-.01.48-.26-.03-1.24.09-1.22.46.01.27-.04.78-.06,1.03l-.02.49c-.32,0-1.07.11-1.16.46-.06.24-.14.8-.17,1-1.46,2.3-3.48,4.46-5.3,6.56-1.51,1.06-3.16,2.32-3.87,3.83l-2.71,2.06c-.56.43-1.26,1.13-1.76,1.66-.12.11-.38.12-.62.16l-1.39.39c-.23.07-.13.71-.1.93-.12.02-.34.01-.48.01l-1.39.32c-.24.05-.11.79-.07.98-.13.01-.33.01-.49.01-1.25.01-2.69.73-2.78,1.91-2.04.8-4.24,2.1-6.32,2.69l-7.17,2.04-.25,1.02c-.26.07-.8.03-1.09.02-.15-.13-.93-.85-1.05-.55l-.46,1.18-1.09.02c-.16-.13-.92-.85-1.04-.55l-.48,1.17-1.72.05c.05-.09-.84-.88-1.05-.6-.14.19-.33.58-.42.77l-3.74.48c-.74-.78-2.8-.7-3.44.16h-4.38c.97-1.32-9.41-.62-10.33-.5-2.84.36-2.83,5.04-1.37,6.37l-.05,7-1.48.11-3.08-1.96c-.04-.36-.12-1.01-.45-1.12-.22-.07-.76-.17-.97-.21l-5.12-3.89c-.04-.37-.11-1.01-.44-1.12-.23-.08-.76-.17-.97-.21l-1.86-1.28-.39-1.16c-.07-.22-.82-.06-1.02-.17l-1.18-.64c-.03-.35-.07-1.13-.42-1.19-.25-.05-.79-.11-.99-.13l-2.51-1.93-.39-1.15c-.08-.22-.82-.05-1.03-.16l-1.19-.64c-.03-.34-.06-1.17-.41-1.19-.25-.02-.8-.11-.99-.14l-1.91-1.84.04-2.09,2.52-1.92,1.31-.37c.23-.06.11-.83.1-.96l1.18-.63,1.3-.4c.22-.07.11-.81.11-.93l4.46-3.24,1.31-.42c.22-.07.12-.76.11-.9l1.86-1.28c.28-.19.95-.32,1.25-.47.2-.1.14-.68.13-.87l5.12-3.88,1.31-.37c.23-.06.11-.85.1-.96l1.38-.65c.46-.22,1.52-.48,2.02-.53.4-.05.96.8,1.16,1.11l.19,9.98c0,.4.26,1.24.68,1.26l1.77.12,12.23.58c.47.02,1.7-.28,2.05-.4.24-.08.14-.6.11-.91h1.1s2.33.71,2.33.71c.57.17,1.97-.83,1.78-1.36h1.1c-.71,1.47,10.79-1.85,8.65-2.66,1.73-.47,4.7-2.05,6.28-2.69.33-.13.98-.29,1.31-.4.22-.07.12-.68.15-.91l.16-1.15c2.54.8,8.86-5.89,10.19-7.82,1.45-.9,3.01-2.58,3.94-4,.36-.03,1.06-.09,1.15-.44.06-.25.13-.82.16-1.03,1.21-2.21,2.72-4.61,3.36-6.94,1.7-.5,2.2-3,2.42-4.81l.29-2.32c.28-.02.98-.25.98-.59l.02-1.01.02-1.1c.18-.18.61-1.09.62-1.52l.04-1.73c.73-1,.62-2.68.62-4.13v-7.55c0-1.06.11-2.59.19-4.21l-1.26-.63c.01-.27-.01-.79-.02-1.09.8-1.17.22-3.09-.87-4l-.61-2.48c-.44-1.78-.59-4.35-2.45-4.8l-.18-1.7-.22-1.45c-.04-.25-.86-.13-1.03-.09-.05-.18-.17-.54-.26-.72-.65-1.38-2.29-3.88-3.47-4.97-.28-.55-.62-1.4-.87-2.01,2.23-.15,3.38-1.64,3.71-4.22l4.45-1.53,3.5-4.18c.81.58,1.84,1.71,2.11,2.6Z"/>
          <path class="cls-29" d="M215.68,352.37c1.03,1.43,2.95-.12,4.06-.2,2.26-.17,6.59-.15,9.05-.06.96,1.03,2.77,1.04,3.98.27l1.74.02.77,1.07,11.27,2.55,4.93,1.56c.48,1.5,2.55,2.27,4.19,2.52,4.14,2.11,8.01,4.78,11.54,7.82.03.34.05,1.15.4,1.2l.99.14,4.48,4.52.4,1.29c.07.23.85.12.96.11l.47,1.12-3.5,4.18-4.45,1.53c-.33,2.58-1.48,4.07-3.71,4.22l-7.16-6.62c-.47-.57-1.28-1.34-1.89-1.72-.15-.1-.53-.2-.71-.27-.81-.83-1.92-1.59-3.03-2.22-.99-.56-2.27-1.24-3.31-1.59-.13-1.36-1.58-1.53-2.84-1.86l-3.03-.8c-.18-1.38-2.14-1.62-3.54-1.7l-1.13-.06c-1.33-1.15-3.76-1.76-5.3-.89-.31,0-.82-.02-1.09-.01l-.78-1.23-10.31.05c-.35,0-1.72.75-1.5.76-.28.01-.79,0-1.1,0-8.3.07-11.71,3.6-17.85,4.46-2.15-.85-4.37-2.34-5.28-4.4l-.08-1.51c-.01-.25-.71-.14-.93-.1l-.05-2.38c.45-1.34.63-3.11.67-4.7h.48c1.19-.04,2.69-.75,2.82-1.83l1.71-.18c.34-.04,1.07-.14,1.42-.2.23-.04.15-.73.12-.93l3.66-.85c2.26-.53,4.75-.94,6.66-1.98l1.13-.06c.71-.11,1.57-.33,2.19-.56l2.46-.45Z"/>
        </g>
      </g>
      <g>
        <rect class="cls-4" x="147.29" y="350.74" width="56.3" height="11.28" transform="translate(-180.97 531.77) rotate(-89.99)"/>
        <polygon class="cls-13" points="193.67 282.35 156.68 282.35 175.13 253.06 193.67 282.35"/>
        <polygon class="cls-26" points="169.15 320.65 132.6 320.84 151 291.62 169.15 320.65"/>
        <polygon class="cls-13" points="217.82 320.68 181.46 320.81 199.65 291.71 217.82 320.68"/>
      </g>
    </g>
    <path class="cls-11" d="M599.88,457.45c-1.17.38-3.79.4-4.91-.13l-6.35-9.09c-2.4-3.44-3.97-6.84-7.47-9.44l-.31,18.49c-1.27.52-3.31.54-4.54,0l.02-27.77c1.66-.08,3.32-.02,4.65.26l13.92,19.43.44-19.72h4.52s.02,27.97.02,27.97Z"/>
    <path class="cls-18" d="M767.88,453.26c-4.87,5.79-14.4,4.53-21.35,4.45l.06-28.34,12.3.12c2.5.02,6.43,1.86,8.27,3.63,5.62,5.42,5.91,13.97.72,20.14ZM766.57,441.96c-.36-4.19-3.16-7.79-7.25-8.18-2.56-.24-5.09-.17-7.84-.08v19.84c4.39,1.04,9.19.64,12.63-2.67,2.16-2.07,2.75-5.5,2.46-8.92Z"/>
    <path class="cls-11" d="M557.94,443.56c0,8.13-6.59,14.72-14.71,14.72s-14.71-6.59-14.71-14.72,6.59-14.72,14.71-14.72,14.71,6.59,14.71,14.72ZM553.29,443.88c.2-6.69-4.61-10.91-10.64-10.76-5.62.14-9.78,4.99-9.5,11.08.26,5.57,4.81,9.95,10.09,9.88s9.87-4.31,10.05-10.2Z"/>
    <path class="cls-11" d="M375.9,443.6c0,8.14-6.59,14.74-14.73,14.74s-14.73-6.6-14.73-14.74,6.59-14.74,14.73-14.74,14.73,6.6,14.73,14.74ZM371.1,445.91c1.32-6.06-2.6-11.68-7.93-12.63-5.66-1.01-11.1,2.5-11.92,8.24s2.11,11.28,7.74,12.4c5.28,1.04,10.78-1.91,12.11-8Z"/>
    <rect class="cls-10" x="664.86" y="481.81" width="106.43" height="2.79" transform="translate(-.84 1.24) rotate(-.1)"/>
    <path class="cls-18" d="M449.4,429.49l-.06,19.87c0,2.97-1.8,5.53-4.35,7.06-4.64,2.78-11.02,2.59-15.12-1.48-1.55-1.54-2.79-5.08-2.8-7.3v-17.92c1.25-.32,3.18-.33,4.64-.08v17.24c.02,4.18,2.63,7.15,6.68,7.17s6.56-3.02,6.56-7.16v-17.34s4.45-.06,4.45-.06Z"/>
    <path class="cls-9" d="M637.18,454.22c-2.63,3.94-7.8,4.53-12,3.53-3.64-.87-6.26-3.01-6.87-7.08l4.17-.72c1.39,2.37,2.94,3.96,5.07,4.17,2.34.23,4.64-.63,5.99-2.95.69-1.18-.61-3.83-1.92-4.29l-7.35-2.59c-3.5-1.24-5.83-3.4-5.87-6.95s2.01-6.43,5.67-7.63c5.29-1.74,11.72-.59,13.58,5.71-.78.64-3.41,1.05-4.3.63-1.47-1.39-2.95-2.7-4.85-2.91s-4.25.84-5.29,3.03c-.49,1.03.87,3.7,2,4.06l8.08,2.61c1.92.62,3.98,2.47,4.72,3.9,1.14,2.21.66,5.24-.85,7.5Z"/>
    <path class="cls-11" d="M327.27,455.19c-4.23,4.04-11.04,3.77-15.5.65-1.72-1.2-2.56-2.92-2.85-5.28l4.41-.32c1.55,3.92,6.25,5.11,9.62,2.83.73-.49,1.62-2.38,1.6-3.24-.02-1-1.35-2.86-2.36-3.2l-7.41-2.46c-2.71-.9-4.89-2.71-5.39-5.06-.67-3.18.19-6.05,2.82-7.91,3.81-2.69,9.02-3.01,12.99-.58,2,1.22,3.07,2.73,3.37,5.28l-4.42.37c-2.06-3.48-6.76-4.45-9.59-1.39-1.46,1.58-.21,4.58,1.82,5.39,5.05,2.01,10.98,2.16,12.67,7.01.83,2.39.36,5.88-1.77,7.91Z"/>
    <rect class="cls-10" x="308.64" y="481.82" width="105.48" height="2.79" transform="translate(-.79 .59) rotate(-.09)"/>
    <path class="cls-5" d="M479.92,457.5c-1.36.17-2.87.21-4.81.18l-.17-23.9-7.68-.3c-.1-1.04-.05-2.83.16-4.12l19.99.05c.84.77.83,3.44.02,3.97l-7.41.34-.1,23.78Z"/>
    <path class="cls-5" d="M721.43,457.17c-1.21.74-3.6.86-4.66.09l-.11-23.49-7.33-.27c-.83-.65-.81-3.23.08-4.08l19.96-.08.11,4.24-8.12.14.07,23.45Z"/>
    <path class="cls-11" d="M695.87,453.84c1.04.04,1.03,3.32.04,3.93l-14.95-.07-.02-28.1,4.7-.18.04,24.04,10.19.39Z"/>
    <path class="cls-5" d="M409.24,453.9c1,.04,1.19,2.77.32,3.84h-15.09s-.03-28.25-.03-28.25c1.78-.03,3.13.02,4.6.21l.13,23.78,10.06.42Z"/>
    <path class="cls-16" d="M510.22,456.96c-.66,1.14-3.91,1.12-4.86.16l.02-27.37c1.78-.47,3.46-.45,4.86.21l-.03,26.99Z"/>
    <path class="cls-23" d="M435.03,483.16c.3,1.71,1.63,3.75,1.29,5.53-.3,1.52-2.43,3.24-4.34,3.27l-7.83.11v-16.87c3.83,0,11.28-1.51,11.84,3.48.11,1-1.15,3.41-.96,4.48ZM433.2,481.99c.31-2.1.21-3.18-.57-4.78l-5.75-.32-.06,5.36,6.37-.26ZM432.12,489.82c.9-.04,2.11-2.01,2.01-2.85-.32-2.9-4.43-3.25-7.45-2.5l-.04,5.58,5.47-.22Z"/>
    <path class="cls-23" d="M548.77,492.32c-2.67.02-6.44-.53-6.82-3.91,2.56-2.64,2.89,2.45,7.36,1.6.87-.17,2.11-1.65,2.08-2.4-.1-2.99-3.59-1.67-8.38-5.08-1.29-.92-1.05-3.98-.38-5.31.85-1.67,3.2-2.33,5.6-2.35s4.98,1.91,5.01,3.71c.01.52-1.07,1.42-1.36,1.15l-1.46-1.35c-.66-.61-2.26-1.22-3.28-1.39-.87-.14-2.67,1.24-2.56,2.54.4,4.36,9.51,1.87,9.2,8.09-.14,2.73-1.9,4.67-5.02,4.7Z"/>
    <path class="cls-23" d="M638.95,490.66l-.14-7.32c-.03-1.32-2.48-2.37-3.62-2.28-1.76.14-3.33,1.49-3.34,3.62l-.04,6.75c0,.43-1.42,1.16-1.73.86s-.67-1.21-.67-1.74l.13-11.37c3.02,1.11,10.6-2.32,11.5,3.14.3,1.81,1.43,10.15-.68,9.91-.55-.06-1.4-.99-1.41-1.57Z"/>
    <path class="cls-23" d="M486.03,491.43l-.29-8.12c-.05-1.3-2.63-2.35-3.73-2.26s-3.22,1.59-3.24,2.72l-.18,8.27-2.37-.06.11-12.81c5.17,1.17,6.71-1.6,9.85.64.94.67,2,2.67,2.04,4.07l.19,6.46c.01.44-.54,1.42-.81,1.7s-1.56-.24-1.57-.62Z"/>
    <path class="cls-23" d="M570.55,485.65c0,3.78-3.06,6.84-6.83,6.84s-6.83-3.06-6.83-6.84,3.06-6.84,6.83-6.84,6.83,3.06,6.83,6.84ZM562.12,489.91c3.67,1.02,5.77-1.3,5.86-4.19.07-2.17-1.28-4.72-4.16-4.73-2.3,0-3.95,1.64-4.37,3.7-.37,1.81.51,4.62,2.68,5.22Z"/>
    <path class="cls-28" d="M515.94,491.78c-2.82,1.4-8.77.31-8.32-3.07.06-.48,1.7-.19,2.13.05l2.98,1.65c.75.42,3.25-1.88,2.59-2.46-2.7-2.36-7-.71-7.77-4.46-.23-1.12.64-3.13,1.68-3.7,4.68-2.53,9.35,1.16,8.32,2.69-.31.46-1.73.3-2.2,0l-2.62-1.6c-.61-.37-2.66,1.34-2.4,2.01,1.03,2.63,7.16,1.19,7.66,4.82.19,1.42-.49,3.3-2.04,4.07Z"/>
    <path class="cls-28" d="M590.17,478.87c1.2.35,1.85.38,1.94.72s.23,1.35.24,1.8l.25,10.55-3.88-.17c-2.06.48-4.17.81-6.02-.2-1.59-.87-2.46-3.36-2.39-5.47l.19-5.37c.02-.62.69-1.73,1.23-1.76s1.32,1.17,1.31,1.75l-.15,5.39c-.05,1.81,1.15,3.46,2.83,3.99,1.3.41,4.14-.97,4.19-2.79l.24-8.44Z"/>
    <path class="cls-28" d="M529.68,491.51c-2.42,1.47-5.84.87-7.77-.65-.43-.34-.86-1.73-.6-2.15.32-.5,1.82-.08,2.34.21l2.64,1.5c.62.35,2.58-1.23,2.4-1.92-.72-2.75-6.63-1.31-7.41-4.4-.39-1.57.26-3.48,1.59-4.4,2.26-1.55,6.11-.67,7.48,1.02.27.34.46,1.55.44,1.93-.03.47-1.43-.02-1.84-.26l-2.59-1.49c-.64-.36-2.62,1.14-2.62,1.91,1.34,2.7,6.4,1.11,7.62,5.16.28.94-.71,2.94-1.67,3.53Z"/>
    <path class="cls-28" d="M653.71,491.45c-3.69,2.72-10.24-1.02-8.54-2.76.42-.43,1.88-.09,2.41.22l2.61,1.51c.75.43,3.08-1.81,2.45-2.4-2.57-2.4-6.9-1.22-7.58-4.52-.24-1.17.65-2.87,1.8-3.73,2.07-1.54,6.06-.78,7.36.9.25.33.42,1.64.4,2.01-.03.47-1.39-.06-1.83-.31l-2.52-1.43c-.61-.35-2.67,1.28-2.43,1.98.92,2.64,5.81.84,7.34,4.47.39.94-.37,3.22-1.48,4.04Z"/>
    <path class="cls-28" d="M448.97,488.78l2.04,2.95c.3-3.99.23-7.41-.26-11.68l-.46,5.91c-.05.63-.84,1.79-1.21,2.02l.49-8.36c.46-.28,2.47-.69,2.56-.57l-.12,12.87c-2.31-.07-3.79-.12-5.62.25-3.13.64-6.39-.99-6.45-4.64l-.13-8,1.81-.53c.42-.12.63,1.21.68,1.76l.57,7.12c.08.96,2.35,2.66,3.16,2.33s1.98-.91,2.93-1.43Z"/>
    <path class="cls-28" d="M464.4,491.4c-2.39,1.68-6.32.97-8.01-.63-.36-.34-.64-1.72-.41-2.07.68-1.06,1.87.49,4.61,1.66.85.36,2.85-1.46,2.81-2.6-2.94-1.88-7.83-.89-7.66-5.34.07-1.81,1.8-3.03,3.86-3.35,2.29-.35,5.51.09,5.58,3.3.05,2.14-2.56-1.16-5.44-1.42-.65-.06-1.36,1.83-1.33,2.76l4.94,1.44c1.02.3,2.47,1.66,2.62,2.61.16,1.09-.59,2.98-1.55,3.65Z"/>
    <path class="cls-23" d="M626,485.68c0,3.75-3.04,6.8-6.79,6.8s-6.79-3.04-6.79-6.8,3.04-6.8,6.79-6.8,6.79,3.04,6.79,6.8ZM619.51,490.27c2.96-.11,4.17-2.74,3.99-5.12-.16-2.1-1.8-4.19-4.19-4.21-2.97-.02-4.39,2.28-4.39,4.71s1.42,4.74,4.59,4.62Z"/>
    <path class="cls-23" d="M502.6,486.01l-.64-1.44c.19-2.28-1.6-3.81-4.18-3.67-1.67.09-4.25,1.69-3.03,3.76v1.4c0,1.34.33,3.18,1.33,3.66,4.58,2.16,5.65-2.98,8.09-.89-1.2,3.73-5.7,4.13-8.61,2.99-3.34-1.3-4.42-5.2-3.43-8.75.88-3.14,3.69-4.42,6.83-4.07,2.36.26,5.11,2.09,5.51,4.98.06.44,0,1.98-.39,1.99l-1.48.04Z"/>
    <path class="cls-28" d="M599.96,489.18l3.7,1.86c-1.65,1.86-4.94,1.45-5.88-.54-1.33-2.8.46-8.13-.62-8.64l-2.03-.96,2.1-3.22c.16-.25.52-1.35.62-1.63.14-.36,1.19.04,1.35.39.23.51.31,2.34.86,2.44l3.06.57c-.05.64,0,1.51-.43,1.54l-3.1.25.36,7.93Z"/>
    <path class="cls-28" d="M576.45,490.59c0,.43-.95,1.55-1.35,1.61-.5.08-1.39-1.01-1.38-1.54l.33-14.49.16-1.51c.04-.35,1.58-.12,1.88.04l.36,15.89Z"/>
    <path class="cls-28" d="M472.15,490.28c0,.39-.63,1.46-.91,1.72s-1.49-.23-1.5-.64l-.04-11.61c.21-.33,1.71-.46,2.34-.38l.1,10.91Z"/>
    <path class="cls-21" d="M607.5,491.87v-12.39c.28-.07,1.33.5,1.33.86l-.03,11.31-1.3.23Z"/>
    <path class="cls-28" d="M288.88,406.48c-1.3-3.41-3.09-9.89-3.95-13.23l1.01.28,3.23,10.09c.23.71.02,2.32-.29,2.86Z"/>
    <path class="cls-28" d="M607.5,491.87c-.61-.05-1.31-1.51-1.31-2.18l-.03-8.37c0-.59.79-1.7,1.34-1.84v12.39Z"/>
    <path class="cls-28" d="M289.97,422.81c-.86-2.62-.86-6.03,0-8.65,1.18,2.46,1.2,6.19,0,8.65Z"/>
    <polygon class="cls-28" points="501.96 484.57 502.6 486.01 494.74 486.07 494.74 484.67 501.96 484.57"/>
    <path class="cls-10" d="M609.51,474.43c-.69,1.7-.84,2.27-1.24,2.58s-1.96-.18-1.82-.67l.57-2.09,2.49.17Z"/>
    <path class="cls-21" d="M448.97,488.78l.12-.8c.37-.22,1.16-1.39,1.21-2.02l.46-5.91c.49,4.27.56,7.69.26,11.68l-2.04-2.95Z"/>
    <path class="cls-10" d="M470.03,476.15c.3.3.78.3,1.07,0s.3-.78,0-1.07-.78-.3-1.07,0-.3.78,0,1.07l-1-1.49c1.24-.75,2.34-.98,3.21-.36.56.4.28,2.39-.32,2.73-.97.54-1.91.42-1.88-.88Z"/>
    <polygon class="cls-28" points="289.96 423.91 290.16 428.09 288.89 428.73 288.66 424.53 289.96 423.91"/>
    <polygon class="cls-28" points="289.94 411.76 288.66 411.14 288.88 407.58 290.14 408.19 289.94 411.76"/>
    <path class="cls-28" d="M284.76,391.53c-1.68-.44-1.97-2.63-2.5-4.22,1.54.52,2.37,2.54,2.5,4.22Z"/>
    <g>
      <path class="cls-21" d="M375.84,407.5l-12.48.21-41.28-57.92-.18,57.89-13.17-.11v-79.15c4.96-.19,8.92-.19,13.24.24l40.37,56.41.6-56.7,12.81.02.09,79.11Z"/>
      <g>
        <path class="cls-8" d="M561.56,396.79c-10.38-1.57-17.8-8.58-21.13-17.95-2.92-8.2-2.42-16.64,1.26-24.6,4.6-9.92,14.44-15.4,25.44-15.23s20.68,6.09,25.01,16.41c3.68,8.75,3.39,18.99-1.04,27.47-5.61,10.75-17.37,15.73-29.54,13.89Z"/>
        <path class="cls-25" d="M608.49,368.07c0,23.1-18.71,41.83-41.79,41.83s-41.79-18.73-41.79-41.83,18.71-41.83,41.79-41.83,41.79,18.73,41.79,41.83ZM561.56,396.79c12.16,1.85,23.93-3.14,29.54-13.89,4.43-8.48,4.72-18.72,1.04-27.47-4.34-10.32-14.09-16.24-25.01-16.41s-20.84,5.31-25.44,15.23c-3.69,7.96-4.18,16.39-1.26,24.6,3.33,9.36,10.75,16.37,21.13,17.95Z"/>
      </g>
      <path class="cls-6" d="M682.67,407.27c-5.12.49-9.88.43-15.12.32l-19.95-30.5-13.75-.14-.08,30.57-13.15-.04.03-79.16,32.44.14c7.7.03,14.75,3.1,19.78,8.4,4.14,5.22,5.86,10.87,5.58,17.4-.45,10.43-7.03,18.37-17.46,21.15l21.69,31.85ZM663.52,359.3c2.01-4.03,2-8.76.09-12.47-2.04-3.96-6.75-6.69-11.24-6.71l-18.72-.09v25.69s19.88-.14,19.88-.14c3.93-.03,8.23-2.73,10-6.27Z"/>
      <path class="cls-1" d="M749.05,388.54h-35.37s-7.47,19.08-7.47,19.08l-14.04-.21,32.4-78.88c4.46-.3,8.58-.3,13.25-.14l32.99,78.95-14.09.32-7.67-19.13ZM744.74,377.42l-13.46-33.57-13.39,33.63,26.85-.07Z"/>
      <path class="cls-2" d="M438.91,373.03l-33.79.08-.08,22.89,38.69.07.36,11.58-52.28-.04.02-79.31,51.52-.06-.02,12.03-38.3.15.07,21.07h33.85c.21,3.67.17,6.8-.05,11.53Z"/>
      <g>
        <path class="cls-24" d="M490.71,378.78c-.04-.2-1.18.39-1.57.96l-19.08,27.75c-5.29.19-9.68.28-14.97-.22l26.16-37.84c.3-.43,1.52-1.27,1.79-1.44,3.41,2.78,5.1,7.3,7.67,10.79Z"/>
        <path class="cls-7" d="M498.54,366.64c-3.28-2.83-5.9-6.6-7.2-10.36l19.39-28.12,14.91.31-27.09,38.16Z"/>
        <path class="cls-12" d="M491.33,356.29c1.31,3.76,3.92,7.53,7.2,10.36.85,2.07,2.15,4.12,3.58,6.21l23.63,34.55-15.22.2c-6.5-9.84-12.73-19.17-19.82-28.82-2.56-3.49-4.26-8.01-7.67-10.79l-26.57-39.46,15.23-.17,16.78,24.88c.7,1.04,1.8,2.13,2.85,3.05Z"/>
      </g>
      <path class="cls-20" d="M663.52,359.3c-1.77,3.54-6.07,6.25-10,6.27l-19.86.14v-25.69s18.7.09,18.7.09c4.49.02,9.2,2.75,11.24,6.71,1.91,3.72,1.93,8.45-.09,12.47Z"/>
      <polygon class="cls-19" points="744.74 377.42 717.89 377.49 731.28 343.85 744.74 377.42"/>
    </g>
    <path class="cls-17" d="M766.57,441.96c.29,3.42-.3,6.84-2.46,8.92-3.44,3.3-8.24,3.7-12.63,2.67v-19.84c2.75-.09,5.28-.16,7.84.08,4.09.39,6.9,3.98,7.25,8.18Z"/>
    <path class="cls-17" d="M553.29,443.88c-.18,5.89-4.62,10.13-10.05,10.2s-9.83-4.31-10.09-9.88c-.29-6.09,3.88-10.94,9.5-11.08,6.03-.15,10.84,4.08,10.64,10.76Z"/>
    <path class="cls-17" d="M371.1,445.91c-1.33,6.1-6.84,9.05-12.11,8-5.63-1.11-8.59-6.39-7.74-12.4s6.26-9.25,11.92-8.24c5.33.95,9.25,6.57,7.93,12.63Z"/>
    <path class="cls-22" d="M432.12,489.82l-5.47.22.04-5.58c3.02-.75,7.13-.4,7.45,2.5.09.84-1.11,2.82-2.01,2.85Z"/>
    <path class="cls-22" d="M433.2,481.99l-6.37.26.06-5.36,5.75.32c.78,1.59.88,2.68.57,4.78Z"/>
    <path class="cls-22" d="M562.12,489.91c-2.17-.6-3.05-3.41-2.68-5.22.42-2.06,2.07-3.7,4.37-3.7,2.88,0,4.22,2.56,4.16,4.73-.09,2.9-2.19,5.22-5.86,4.19Z"/>
    <path class="cls-22" d="M619.51,490.27c-3.17.12-4.58-2.2-4.59-4.62s1.41-4.72,4.39-4.71c2.39.01,4.03,2.11,4.19,4.21.18,2.38-1.02,5-3.99,5.12Z"/>
    <path class="cls-22" d="M501.96,484.57l-7.22.1c-1.22-2.07,1.36-3.67,3.03-3.76,2.58-.14,4.37,1.39,4.18,3.67Z"/>
    <circle class="cls-21" cx="470.57" cy="475.61" r=".76"/>
  </g>
</svg>